<?xml version="1.0" standalone="no"?>
<!DOCTYPE svg PUBLIC "-//W3C//DTD SVG 20010904//EN"
 "http://www.w3.org/TR/2001/REC-SVG-20010904/DTD/svg10.dtd">
<svg version="1.0" xmlns="http://www.w3.org/2000/svg"
 width="150.000000pt" height="109.000000pt" viewBox="0 0 150.000000 109.000000"
 preserveAspectRatio="xMidYMid meet">
<metadata>
Created by potrace 1.16, written by Peter Selinger 2001-2019
</metadata>
<g transform="translate(0.000000,109.000000) scale(0.100000,-0.100000)"
fill="#000000" stroke="none">
<path d="M0 545 l0 -545 750 0 750 0 0 545 0 545 -750 0 -750 0 0 -545z m1277
362 c17 -16 18 -45 18 -362 0 -317 -1 -346 -18 -362 -16 -16 -42 -18 -292 -18
-250 0 -276 2 -292 18 -16 16 -18 46 -21 346 -2 206 1 338 7 355 6 14 21 31
33 36 13 5 140 8 285 7 237 -2 264 -4 280 -20z m-657 -172 l0 -35 -65 0 -65 0
0 -180 0 -180 -45 0 -45 0 0 180 0 180 -65 0 -65 0 0 35 0 35 175 0 175 0 0
-35z"/>
<path d="M810 555 l0 -215 113 0 c97 0 119 3 157 23 65 33 85 78 85 192 0 114
-20 159 -85 193 -38 19 -60 22 -157 22 l-113 0 0 -215z m206 135 c41 -14 56
-44 62 -120 5 -79 -14 -135 -53 -150 -15 -6 -49 -10 -76 -10 l-49 0 0 145 0
145 44 0 c23 0 56 -5 72 -10z"/>
</g>
</svg>
