<?xml version="1.0" standalone="no"?><!DOCTYPE svg PUBLIC "-//W3C//DTD SVG 1.1//EN" "http://www.w3.org/Graphics/SVG/1.1/DTD/svg11.dtd"><svg t="1590772238823" class="icon" viewBox="0 0 1196 1024" version="1.1" xmlns="http://www.w3.org/2000/svg" p-id="994" xmlns:xlink="http://www.w3.org/1999/xlink" width="233.59375" height="200"><defs><style type="text/css"></style></defs><path d="M96.160623 698.86217H17.363576a16.668884 16.668884 0 1 1 0-33.308804h78.797047a16.668884 16.668884 0 0 1 0 33.308804z" fill="#50FBFF" p-id="995"></path><path d="M56.740376 738.253452a16.668884 16.668884 0 0 1-16.668884-16.668884v-78.768082a16.668884 16.668884 0 0 1 33.308804 0v78.768082a16.668884 16.668884 0 0 1-16.63992 16.668884z" fill="#50FBFF" p-id="996"></path><path d="M1090.428445 820.366897m-29.673801 0a29.6738 29.6738 0 1 0 59.347601 0 29.6738 29.6738 0 1 0-59.347601 0Z" fill="#FE7E00" p-id="997"></path><path d="M1011.732773 932.385856m-17.639184 0a17.639184 17.639184 0 1 0 35.278368 0 17.639184 17.639184 0 1 0-35.278368 0Z" fill="#FE7E00" p-id="998"></path><path d="M1131.166561 624.916624m-64.850794 0a64.850795 64.850795 0 1 0 129.701589 0 64.850795 64.850795 0 1 0-129.701589 0Z" fill="#FEDF1D" p-id="999"></path><path d="M628.768411 90.759252c-238.954469 0-432.65241 181.851592-432.65241 406.193633 0 129.296091 33.062609 252.669007 133.322112 327.063499l-33.308805 166.65988 236.2608-97.754101a461.341428 461.341428 0 0 0 96.407267 10.238837c238.954469 0 432.65241-181.866074 432.65241-406.208115S867.708398 90.759252 628.768411 90.759252z" fill="#FEDF1D" p-id="1000"></path><path d="M882.161522 106.950227c53.583729 71.208432 84.937452 157.188594 84.937453 249.801554 0 245.572784-220.127753 444.600133-491.826226 444.600133a543.078339 543.078339 0 0 1-109.585968-11.209137l-110.411446 48.906015-36.827953 151.627472 241.561245-107.008156a543.078339 543.078339 0 0 0 109.585968 11.223619c271.626062 0 491.826226-199.070796 491.826225-444.600133 0-138.289468-69.803669-261.792723-179.259298-343.341367zM170.656488 705.741163c-2.693669-1.926118-5.228034-3.982574-7.863774-5.952139 2.331616 3.113649 4.605304 6.270745 7.038295 9.326465z" fill="#FC8704" p-id="1001"></path><path d="M240.706353 1023.999551a33.308805 33.308805 0 0 1-32.396433-41.143615l39.72437-164.820655C135.769136 729.332486 71.859677 602.034923 71.859677 465.454341a33.308805 33.308805 0 0 1 66.61761 0c0 122.069528 60.694435 235.826338 166.544023 312.089019a33.308805 33.308805 0 0 1 12.918024 34.858388l-28.964178 120.201339 170.88865-76.364055a33.612929 33.612929 0 0 1 20.390782-2.21576 483.803148 483.803148 0 0 0 98.796811 10.224355c242.893597 0 440.501702-178.882764 440.501702-398.793286S821.916032 66.661056 579.022435 66.661056c-77.609515 0-153.90116 18.522592-220.663591 53.583729a33.308805 33.308805 0 0 1-30.99167-58.956584C403.629855 21.259707 490.652728 0.057928 579.022435 0.057928c279.649139 0 507.162758 208.80276 507.162758 465.454342s-227.513619 465.454341-507.162758 465.454341a553.621299 553.621299 0 0 1-101.664265-9.471286l-223.024171 99.665737a33.308805 33.308805 0 0 1-13.627646 2.838489z" fill="#27233A" p-id="1002"></path><path d="M120.142962 390.726762a33.83016 33.83016 0 0 1-9.065788-1.230978 33.308805 33.308805 0 0 1-23.026521-41.143614 435.592274 435.592274 0 0 1 27.515969-72.16425 460.646288 460.646288 0 0 1 72.975246-107.73226 33.333424 33.333424 0 0 1 49.441852 44.720691 394.028678 394.028678 0 0 0-62.490214 92.178496 375.086106 375.086106 0 0 0-23.287199 61.157862 33.308805 33.308805 0 0 1-32.063345 24.214053zM579.529308 674.300547a187.991998 187.991998 0 0 1-120.737176-43.982104 33.324735 33.324735 0 1 1 42.866983-51.034882c47.790894 40.100905 125.125249 34.988727 167.268129-11.064316a33.346458 33.346458 0 0 1 49.239102 44.981369 188.267157 188.267157 0 0 1-138.637038 61.099933z" fill="#27233A" p-id="1003"></path></svg>